<svg width="35" height="41" viewBox="0 0 35 41" fill="none" xmlns="http://www.w3.org/2000/svg">
<path d="M24.9098 17.5558C25.0513 17.9674 24.9599 18.331 24.6355 18.6465C24.351 18.8538 24.0205 18.9164 23.644 18.8344C23.4463 18.7805 23.218 18.6301 22.959 18.3833C22.8577 18.2987 22.7223 18.14 22.5527 17.9072C22.2749 17.6346 22.0382 17.3913 21.8428 17.1774C21.6732 16.9446 21.5318 16.7506 21.4188 16.5954C21.0607 16.104 20.7616 15.7479 20.5215 15.5269C20.4461 15.4235 20.326 15.313 20.1612 15.1955L20.0481 15.0403C19.8785 14.8076 19.8019 14.5665 19.8181 14.3171C19.8344 14.0677 19.9495 13.8452 20.1634 13.6498L20.2798 13.565C20.5643 13.3577 20.8689 13.3139 21.1937 13.4336C21.4549 13.5204 21.6326 13.6285 21.7268 13.7578C22.1318 14.0963 22.5133 14.5112 22.8713 15.0026C23.0291 15.1648 23.2305 15.414 23.4754 15.7502C23.7016 16.0606 23.9029 16.3098 24.0796 16.4978C24.275 16.7117 24.4422 16.8869 24.5811 17.0232C24.7507 17.256 24.8603 17.4335 24.9098 17.5558ZM29.8238 27.3975C29.857 27.7692 29.7055 28.0775 29.3693 28.3225C28.9695 28.5346 28.6143 28.5361 28.3036 28.327C28.0375 28.1249 27.8644 27.9145 27.7842 27.6957L27.5647 26.9054C27.5034 26.7126 27.4138 26.4809 27.2959 26.2104C27.1781 25.94 27.0885 25.7083 27.0271 25.5155C26.8597 25.1227 26.6536 24.7582 26.4086 24.422C26.1588 23.9705 26.142 23.567 26.3581 23.2116C26.4239 23.0845 26.4826 23.0021 26.5344 22.9644L26.6119 22.9079C26.974 22.644 27.3551 22.6237 27.7553 22.8469C27.946 22.9455 28.1638 23.163 28.4087 23.4992C28.7646 24.1506 29.0722 24.8173 29.3316 25.4993L29.7916 26.9458C29.7776 27.0352 29.7765 27.1152 29.7883 27.1858C29.8001 27.2564 29.8119 27.3269 29.8238 27.3975ZM16.6362 7.66763C16.7681 7.84867 16.8389 8.05447 16.8485 8.28502C16.8839 8.49673 16.8265 8.71676 16.6761 8.9451L16.5104 9.12523C16.2776 9.29483 15.9824 9.35155 15.6248 9.2954C15.4907 9.27434 15.3695 9.24386 15.2612 9.20396C15.1788 9.14521 15.0929 9.10882 15.0035 9.09478C14.1396 8.61559 13.6124 8.32667 13.4217 8.22802C13.2122 8.10351 12.9804 7.97549 12.7262 7.84397C12.472 7.71244 12.1766 7.55154 11.84 7.36126L10.7914 6.81871C10.7278 6.78583 10.5819 6.6942 10.3535 6.54382C10.29 6.51094 10.2205 6.44277 10.1451 6.33932C9.90016 6.0031 9.88575 5.65727 10.1019 5.30182C10.1676 5.17472 10.2264 5.09233 10.2781 5.05464L10.3945 4.96984C10.5497 4.85678 10.8131 4.78361 11.1848 4.75035C11.4907 4.84419 11.7073 4.92399 11.8344 4.98976C12.2038 5.11648 12.6075 5.31728 13.0453 5.59216L13.9598 6.11366L14.8072 6.62463C15.0614 6.75616 15.2839 6.87125 15.4745 6.96989C15.691 7.0497 15.8723 7.13541 16.0182 7.22704C16.2983 7.33973 16.5043 7.48659 16.6362 7.66763ZM32.619 39.7926C32.5133 40.0279 32.357 40.221 32.1501 40.3717C32.0467 40.4471 31.8727 40.5343 31.6281 40.6333C31.3905 40.6877 31.1317 40.6585 30.8516 40.5458C30.5715 40.4331 30.2926 40.2404 30.0147 39.9678C29.7369 39.6951 29.3812 39.2613 28.9478 38.6665C28.8089 38.5301 28.6263 38.3068 28.4002 37.9964C28.306 37.8671 28.1612 37.6955 27.9657 37.4816C27.8149 37.2747 27.696 37.0842 27.6088 36.9102L27.0717 36.1731C26.9963 36.0696 26.8857 35.9721 26.7397 35.8805C26.6196 35.77 26.5408 35.6889 26.5031 35.6372C26.237 35.4351 26.0968 35.1611 26.0824 34.8153C26.0938 34.4506 26.2418 34.1646 26.5263 33.9573C26.7591 33.7877 27.0319 33.7275 27.3449 33.7766C27.6955 33.8775 28.0192 34.0772 28.3159 34.3757C28.5302 34.6155 28.8352 35.007 29.2309 35.5501L29.4853 35.8993C29.6054 36.0097 29.6808 36.1132 29.7115 36.2096C29.768 36.2872 29.8151 36.3519 29.8528 36.4036L29.7746 35.8072C29.6372 34.6404 29.5777 33.8523 29.5961 33.4429L29.5462 32.8854C29.5366 32.6548 29.5518 32.4854 29.5917 32.3772C29.6456 32.1795 29.7631 32.0147 29.9441 31.8828C30.1252 31.7509 30.318 31.6896 30.5227 31.6988C30.7533 31.6892 30.9604 31.7561 31.144 31.8994C31.2076 31.9323 31.2865 32.0134 31.3807 32.1427C31.5126 32.3237 31.5928 32.5425 31.6212 32.7989C31.6707 32.9212 31.6944 33.0623 31.6922 33.2223C31.7088 33.4082 31.7101 33.5458 31.6961 33.6352L31.8103 35.0961C31.8457 35.3078 31.86 35.4361 31.8529 35.4808C31.8529 35.4808 31.8659 35.4713 31.8917 35.4525C31.9176 35.4336 31.9305 35.4242 31.9305 35.4242C32.0033 35.2524 32.0632 35.09 32.1101 34.9371C32.1759 34.81 32.2287 34.6923 32.2686 34.584C32.3554 34.3228 32.4611 34.0874 32.5856 33.8779C32.8324 33.6189 33.1158 33.4916 33.4357 33.4961C33.7557 33.5005 34.0099 33.632 34.1984 33.8906C34.4622 34.2527 34.5213 34.6056 34.3757 34.9492C34.3406 35.1727 34.2738 35.3798 34.1751 35.5705C33.6305 36.9967 33.2445 38.0699 33.0169 38.79L32.619 39.7926ZM7.67156 2.61835C7.70704 2.83006 7.6531 3.02774 7.50975 3.21137C7.4111 3.40203 7.25241 3.53744 7.03368 3.61763C6.77024 3.69079 6.53618 3.72276 6.33149 3.71352C5.56925 3.75419 4.77505 3.56078 3.94888 3.13331C3.56758 2.93602 3.14156 2.73171 2.67084 2.52038L1.95423 2.27044C1.7754 2.24237 1.65421 2.21189 1.59066 2.179C1.39299 2.12506 1.2282 2.00757 1.09629 1.82653C0.945534 1.61963 0.881795 1.36912 0.905065 1.07501C0.947179 0.806771 1.08813 0.565499 1.32791 0.351195C1.58655 0.162754 1.92647 0.11305 2.34768 0.202084C3.04895 0.403803 3.5714 0.577446 3.91502 0.723013L5.05894 1.31489C5.32497 1.51699 5.73325 1.61545 6.28377 1.61026C6.52135 1.55594 6.75782 1.58162 6.99318 1.68728C7.2544 1.7741 7.43212 1.88217 7.52635 2.01149C7.62057 2.1408 7.66897 2.34309 7.67156 2.61835Z" fill="#383838"/>
</svg>
