<svg width="13" height="15" viewBox="0 0 13 15" fill="none" xmlns="http://www.w3.org/2000/svg">
<path d="M12.832 2.832C12.864 2.96 12.88 3.152 12.88 3.408C12.88 3.76 12.832 4.128 12.736 4.512C12.64 5.024 12.4 5.68 12.016 6.48C11.6 7.248 11.104 8 10.528 8.736C9.95199 9.504 9.32799 10.224 8.65599 10.896L7.07199 12.528L6.49599 13.104L5.91999 13.776C5.79199 13.904 5.59999 14.064 5.34399 14.256C5.15199 14.32 4.99199 14.352 4.86399 14.352C4.73599 14.352 4.57599 14.32 4.38399 14.256C4.15999 14.128 3.99999 13.984 3.90399 13.824C3.71199 13.504 3.58399 13.248 3.51999 13.056C3.19999 12.352 2.97599 11.824 2.84799 11.472C2.62399 10.96 2.31999 10.192 1.93599 9.168C1.71199 8.592 1.53599 8.08 1.40799 7.632C1.18399 7.056 1.00799 6.544 0.879994 6.096C0.687994 5.392 0.559994 4.864 0.495994 4.512C0.431994 4.064 0.399994 3.696 0.399994 3.408C0.399994 3.088 0.415994 2.848 0.447994 2.688C0.511994 2.144 0.703994 1.632 1.02399 1.152C1.37599 0.64 1.85599 0.367999 2.46399 0.335999H2.65599C2.94399 0.335999 3.31199 0.431998 3.75999 0.623999C4.30399 0.879998 4.79999 1.312 5.24799 1.92C5.53599 2.304 5.77599 2.736 5.96799 3.216L6.01599 3.312C6.01599 3.376 6.04799 3.376 6.11199 3.312C6.17599 3.216 6.25599 3.136 6.35199 3.072C6.60799 2.752 7.03999 2.32 7.64799 1.776C8.19199 1.328 8.70399 1.008 9.18399 0.816C9.40799 0.719999 9.64799 0.671999 9.90399 0.671999L10.336 0.623999C10.496 0.623999 10.704 0.655999 10.96 0.719999C11.824 0.943999 12.4 1.472 12.688 2.304C12.752 2.432 12.784 2.528 12.784 2.592C12.816 2.656 12.832 2.736 12.832 2.832ZM10.816 3.648C10.816 3.36 10.784 3.152 10.72 3.024C10.688 2.832 10.576 2.736 10.384 2.736C10.128 2.736 9.83999 2.816 9.51999 2.976C9.23199 3.136 8.91199 3.392 8.55999 3.744L6.87999 5.472L6.30399 6.096C6.04799 6.288 5.80799 6.384 5.58399 6.384C5.07199 6.384 4.75199 6.176 4.62399 5.76C4.59199 5.728 4.57599 5.696 4.57599 5.664C4.57599 5.6 4.55999 5.552 4.52799 5.52C4.39999 5.232 4.31999 4.976 4.28799 4.752C4.25599 4.464 4.15999 4.176 3.99999 3.888C3.80799 3.44 3.61599 3.12 3.42399 2.928C3.26399 2.704 3.05599 2.544 2.79999 2.448C2.73599 2.416 2.68799 2.416 2.65599 2.448C2.62399 2.448 2.60799 2.48 2.60799 2.544C2.54399 2.704 2.51199 2.96 2.51199 3.312C2.51199 3.536 2.54399 3.872 2.60799 4.32C2.67199 4.736 2.76799 5.104 2.89599 5.424L3.03999 6.096L3.47199 7.344C3.53599 7.504 3.75999 8.096 4.14399 9.12L5.05599 11.424C5.08799 11.488 5.15199 11.504 5.24799 11.472L5.67999 10.992L7.31199 9.312C8.07999 8.48 8.63999 7.824 8.99199 7.344C9.69599 6.416 10.208 5.536 10.528 4.704C10.56 4.608 10.608 4.464 10.672 4.272C10.736 4.048 10.784 3.84 10.816 3.648Z" fill="#383838"/>
</svg>
