<svg width="38" height="39" viewBox="0 0 38 39" fill="none" xmlns="http://www.w3.org/2000/svg">
<path d="M37.552 27.888L37.6 27.984C37.6 28.24 37.536 28.464 37.408 28.656C37.28 28.848 37.104 28.976 36.88 29.04H36.832C36.608 29.104 36.272 29.264 35.824 29.52C35.728 29.584 35.264 29.824 34.432 30.24C33.632 30.624 32.4 31.168 30.736 31.872L28.864 32.592C27.904 32.976 27.056 33.296 26.32 33.552L24.016 34.32C23.856 34.352 23.648 34.432 23.392 34.56C23.264 34.624 23.008 34.688 22.624 34.752C21.952 34.976 21.36 35.152 20.848 35.28L20.224 35.472L19.456 35.664L18.832 35.808L17.344 36.144L16.864 36.288C16.352 36.416 15.968 36.496 15.712 36.528L14.08 36.864L13.12 37.056L11.152 37.488L9.47202 37.824C8.44803 38.016 7.90402 38.112 7.84002 38.112C7.52002 38.176 7.28003 38.208 7.12003 38.208C6.80002 38.208 6.57603 38.144 6.44803 38.016L6.20802 37.824C6.11202 37.696 5.98403 37.584 5.82402 37.488C5.79202 37.488 5.76002 37.472 5.72802 37.44C5.69602 37.408 5.68002 37.36 5.68002 37.296L5.24802 36.384L5.20002 36.192C5.13602 35.936 5.04002 35.664 4.91202 35.376C4.78402 35.056 4.68802 34.832 4.62402 34.704L4.04802 33.264L3.32802 31.104C3.20002 30.816 2.91202 29.984 2.46402 28.608C2.33602 28.288 2.17602 27.776 1.98402 27.072C1.72802 26.048 1.52002 25.296 1.36002 24.816L1.07202 23.712L0.928025 23.232C0.672024 22.24 0.512025 21.456 0.448025 20.88L0.400024 20.208C0.400024 19.664 0.528024 19.104 0.784024 18.528C1.23202 17.312 1.76002 16.048 2.36802 14.736L4.04802 11.04C4.33602 10.4 4.80002 9.43998 5.44002 8.15998L6.88002 5.75998L7.88802 4.07998C8.84802 2.60798 9.39203 1.77598 9.52003 1.58398C9.64803 1.35998 9.82403 1.13598 10.048 0.911981C10.304 0.719979 10.56 0.575979 10.816 0.47998H11.392C11.456 0.51198 11.568 0.52798 11.728 0.52798C11.824 0.49598 11.904 0.49598 11.968 0.52798C12.064 0.52798 12.144 0.51198 12.208 0.47998C12.368 0.47998 12.608 0.54398 12.928 0.671978C13.632 0.895979 14.368 1.18398 15.136 1.53598L18.4 2.97598C18.72 3.10398 19.2 3.32798 19.84 3.64798L21.28 4.36798C22.688 5.07198 23.744 5.58398 24.448 5.90398L25.696 6.47998C26.08 6.67198 26.656 6.92798 27.424 7.24798L29.2 7.96798C29.712 8.19198 30.112 8.44798 30.4 8.73598C30.56 8.86398 30.736 9.05598 30.928 9.31198C31.344 9.98398 31.664 10.656 31.888 11.328C31.984 11.552 32.08 11.84 32.176 12.192C32.304 12.512 32.4 12.768 32.464 12.96C32.592 13.216 32.672 13.408 32.704 13.536C32.928 14.048 33.136 14.608 33.328 15.216C33.456 15.44 33.568 15.744 33.664 16.128L33.952 17.04L34.576 18.864C34.768 19.344 35.024 20.064 35.344 21.024L36.256 23.904L36.736 25.344C36.768 25.472 36.816 25.616 36.88 25.776C36.944 25.936 36.992 26.112 37.024 26.304L37.408 27.456L37.552 27.888ZM3.18402 18.096C3.15202 18.096 3.13602 18.112 3.13602 18.144C3.13602 18.144 3.15202 18.144 3.18402 18.144H3.23202L3.52002 17.952L4.96002 17.232C6.30402 16.592 7.44002 16.096 8.36802 15.744C9.58402 15.232 10.672 14.816 11.632 14.496L15.808 13.056C16.288 12.896 16.592 12.784 16.72 12.72L18.016 12.288C19.68 11.776 20.608 11.488 20.8 11.424L22.384 10.992C23.28 10.736 23.952 10.56 24.4 10.464L26.32 9.98398C26.608 9.88798 27.04 9.77598 27.616 9.64798C27.648 9.61598 27.664 9.59998 27.664 9.59998C27.664 9.59998 27.648 9.59998 27.616 9.59998C27.616 9.56798 27.616 9.55198 27.616 9.55198H27.568C27.056 9.35998 26.672 9.19998 26.416 9.07198L24.784 8.35198L21.568 6.81598L20.656 6.38398C20.432 6.28798 20.16 6.15998 19.84 5.99998C19.552 5.83998 19.216 5.67998 18.832 5.51998L17.056 4.65598C16.8 4.52798 16.112 4.22398 14.992 3.74398C14.096 3.32798 13.296 2.99198 12.592 2.73598C12.4 2.67198 12.256 2.63998 12.16 2.63998C12.096 2.63998 11.984 2.65598 11.824 2.68798C11.696 2.68798 11.568 2.65598 11.44 2.59198C11.376 2.59198 11.328 2.60798 11.296 2.63998L11.104 2.92798C10.88 3.34398 10.608 3.75998 10.288 4.17598L9.28003 5.80798C8.44803 7.08798 7.72802 8.30398 7.12003 9.45598C6.41603 10.864 5.90403 11.92 5.58402 12.624C5.00802 13.968 4.56002 14.96 4.24003 15.6L3.32802 17.712L3.18402 18.096ZM27.328 11.808C27.2 11.872 27.088 11.904 26.992 11.904C25.648 12.288 24.624 12.544 23.92 12.672L22.912 13.008C22.656 13.072 22.32 13.168 21.904 13.296C21.488 13.392 21.136 13.488 20.848 13.584C20.656 13.648 20.448 13.712 20.224 13.776C20 13.808 19.792 13.856 19.6 13.92L17.92 14.496C16.768 14.88 15.904 15.184 15.328 15.408C13.792 15.92 12.64 16.32 11.872 16.608C10.848 16.96 9.56802 17.456 8.03202 18.096C7.55202 18.288 6.86402 18.608 5.96802 19.056C4.97602 19.568 4.38402 19.872 4.19202 19.968C4.19202 19.968 4.19202 19.984 4.19202 20.016C4.22402 20.016 4.24003 20.016 4.24003 20.016C4.36802 20.016 4.48002 20.032 4.57602 20.064C4.67202 20.096 4.75202 20.128 4.81602 20.16C6.03202 20.384 7.00802 20.592 7.74402 20.784C7.93602 20.816 8.19203 20.864 8.51203 20.928C8.83203 20.992 9.20003 21.088 9.61603 21.216L10.96 21.504C11.792 21.696 12.416 21.856 12.832 21.984L14.992 22.56C15.152 22.592 15.936 22.832 17.344 23.28C17.568 23.344 17.776 23.408 17.968 23.472C18.192 23.536 18.384 23.584 18.544 23.616C18.576 23.648 18.608 23.664 18.64 23.664C18.704 23.664 18.752 23.68 18.784 23.712C18.88 23.712 18.928 23.68 18.928 23.616C19.376 22.848 19.728 22.272 19.984 21.888C20.528 21.088 20.832 20.64 20.896 20.544L21.856 19.056C22.432 18.224 22.752 17.776 22.816 17.712C23.872 16.4 24.432 15.696 24.496 15.6C25.136 14.768 25.488 14.32 25.552 14.256C25.648 14.128 25.776 13.968 25.936 13.776C26.096 13.584 26.272 13.344 26.464 13.056L27.136 12.192C27.168 12.128 27.248 12.032 27.376 11.904C27.408 11.872 27.424 11.856 27.424 11.856L27.328 11.808ZM34.672 25.92C34.704 25.92 34.72 25.904 34.72 25.872L34.672 25.824L34.528 25.344C34.336 24.672 34.016 23.696 33.568 22.416C33.152 21.072 32.784 20 32.464 19.2C32.24 18.592 31.936 17.68 31.552 16.464L31.12 15.168C30.608 13.888 30.24 12.912 30.016 12.24C30.016 12.144 29.968 12.128 29.872 12.192V12.24C29.712 12.368 29.312 12.8 28.672 13.536L27.568 15.024C26.704 16.144 26.24 16.752 26.176 16.848C25.408 17.808 25.024 18.288 25.024 18.288C24.576 18.768 24.208 19.248 23.92 19.728L23.392 20.496C23.36 20.56 23.36 20.608 23.392 20.64C23.424 20.64 23.44 20.656 23.44 20.688L25.408 21.6L27.088 22.368L28.72 23.136C29.872 23.648 30.72 24.048 31.264 24.336C31.552 24.496 31.904 24.656 32.32 24.816L33.52 25.392C33.712 25.488 33.904 25.584 34.096 25.68C34.288 25.776 34.464 25.856 34.624 25.92H34.672ZM8.36802 32.112L10.096 29.568L11.536 27.552C11.984 26.848 12.432 26.208 12.88 25.632C13.264 25.12 13.536 24.72 13.696 24.432C13.728 24.368 13.712 24.336 13.648 24.336C13.296 24.208 12.992 24.128 12.736 24.096C11.776 23.84 11.056 23.664 10.576 23.568L8.70403 23.088C7.74403 22.896 7.02402 22.736 6.54402 22.608L5.34403 22.368C4.38402 22.176 3.66402 22.016 3.18402 21.888L2.80002 21.792C2.76802 21.792 2.75202 21.824 2.75202 21.888C2.84802 22.112 2.91202 22.32 2.94402 22.512C2.97602 22.704 3.00802 22.864 3.04002 22.992L3.56802 24.912L4.00002 26.496L4.48002 28.032C4.67202 28.672 4.83202 29.152 4.96002 29.472L5.68002 31.536L6.49602 33.744C6.56002 33.872 6.60802 34 6.64002 34.128C6.67202 34.224 6.70402 34.32 6.73602 34.416C6.73602 34.448 6.75202 34.464 6.78402 34.464L6.83203 34.416L7.12003 33.984L8.36802 32.112ZM34.144 28.08C34.176 28.048 34.192 28.032 34.192 28.032C34.192 28.032 34.176 28.032 34.144 28.032C34.144 28 34.144 27.984 34.144 27.984H34.096L32.224 27.12L31.36 26.688C31.2 26.624 31.008 26.544 30.784 26.448C30.56 26.32 30.304 26.192 30.016 26.064L27.376 24.816L24.928 23.664L22.96 22.704L22.288 22.416C22.224 22.384 22.16 22.4 22.096 22.464C21.968 22.592 21.856 22.752 21.76 22.944L20.752 24.624L20.224 25.44C20.032 25.632 19.872 25.76 19.744 25.824C19.616 25.888 19.424 25.92 19.168 25.92C18.976 25.92 18.832 25.904 18.736 25.872L17.248 25.44C17.12 25.376 16.928 25.312 16.672 25.248C16.416 25.184 16.208 25.104 16.048 25.008C15.984 25.008 15.936 25.024 15.904 25.056L15.616 25.392C15.424 25.68 15.248 25.936 15.088 26.16C14.928 26.384 14.8 26.576 14.704 26.736L14.128 27.6C13.776 28.048 13.424 28.544 13.072 29.088C13.008 29.184 12.64 29.696 11.968 30.624L10.672 32.544L9.23203 34.656L8.51203 35.76C8.51203 35.76 8.51203 35.776 8.51203 35.808C8.51203 35.808 8.51203 35.824 8.51203 35.856C8.54403 35.856 8.56002 35.856 8.56002 35.856C8.65602 35.856 8.72003 35.84 8.75203 35.808L9.08802 35.76C9.47202 35.696 9.76002 35.632 9.95202 35.568L10.72 35.424L11.248 35.28L12.448 35.04L13.312 34.896C13.472 34.832 13.712 34.768 14.032 34.704L14.896 34.56C15.056 34.528 15.216 34.496 15.376 34.464C15.536 34.432 15.696 34.4 15.856 34.368L16.144 34.272C16.208 34.24 16.304 34.224 16.432 34.224L16.624 34.176C16.88 34.144 17.184 34.064 17.536 33.936C17.664 33.904 17.856 33.872 18.112 33.84C18.368 33.776 18.576 33.712 18.736 33.648C19.408 33.488 19.856 33.376 20.08 33.312L21.184 33.024L23.104 32.4C23.392 32.336 23.664 32.272 23.92 32.208C24.176 32.112 24.4 32.032 24.592 31.968C24.784 31.872 25.104 31.76 25.552 31.632L27.28 31.008C27.504 30.976 27.728 30.896 27.952 30.768C29.232 30.256 30.032 29.936 30.352 29.808C31.12 29.488 32.272 28.976 33.808 28.272C33.84 28.24 33.872 28.208 33.904 28.176C33.968 28.144 34.048 28.112 34.144 28.08Z" fill="white"/>
</svg>
