<svg width="156" height="25" viewBox="0 0 156 25" fill="none" xmlns="http://www.w3.org/2000/svg">
<path d="M155.408 2.99197C155.579 3.50397 155.664 3.88798 155.664 4.14397C155.664 4.82664 155.451 5.42398 155.024 5.93597C154.597 6.44798 154.043 6.78931 153.36 6.95998H152.848C152.336 6.95998 151.952 6.91731 151.696 6.83198C150.075 6.49065 148.965 6.27731 148.368 6.19198L144.912 5.80798C143.205 5.72264 140.603 5.67997 137.104 5.67997C136.08 5.7653 134.544 5.80798 132.496 5.80798L126.608 6.06397L122.128 6.19198L118.288 6.57597H116.24C115.216 6.74664 114.448 6.83198 113.936 6.83198L111.888 6.95998L109.2 7.08797C108.773 7.17331 108.133 7.21598 107.28 7.21598C106.768 7.21598 105.915 7.30131 104.72 7.47198H103.312C102.288 7.64264 101.52 7.72797 101.008 7.72797L99.088 7.85598C97.552 8.02665 96.4427 8.11198 95.76 8.11198L91.664 8.49598L90.256 8.62397C89.8294 8.7093 89.4027 8.75198 88.976 8.75198C88.6347 8.66664 88.2507 8.66664 87.824 8.75198C86.4587 8.92264 85.4774 9.00797 84.88 9.00797C84.4534 9.0933 83.856 9.17864 83.088 9.26398C82.4054 9.34931 81.552 9.39198 80.528 9.39198C79.9307 9.39198 79.0347 9.47731 77.84 9.64797C76.6454 9.81864 75.7067 9.90398 75.024 9.90398C73.8294 10.0746 72.976 10.16 72.464 10.16L68.624 10.544L66.832 10.672L64.144 10.928L59.792 11.312L57.616 11.568L54.8 11.824L52.368 12.08C52.0267 12.08 51.5574 12.1226 50.96 12.208C50.3627 12.208 49.68 12.2933 48.912 12.464L44.176 12.848C41.5307 13.1893 39.696 13.4026 38.672 13.488L34.576 13.872C33.6374 14.0426 32.144 14.2133 30.096 14.384C27.4507 14.7253 25.5734 14.9386 24.464 15.024L21.136 15.408C20.7094 15.408 20.1547 15.4933 19.472 15.664L15.888 16.048L12.432 16.56C11.7494 16.6453 11.1094 16.7733 10.512 16.944C9.91469 17.0293 9.27469 17.1146 8.59203 17.2L4.11202 17.712C2.83202 17.712 1.85069 17.3706 1.16802 16.688C0.656024 16.176 0.400024 15.5786 0.400024 14.896C0.400024 13.9573 0.741358 13.232 1.42402 12.72C2.02136 12.2933 2.74669 11.9946 3.60002 11.824L8.33602 11.312C9.01869 11.312 9.61603 11.2693 10.128 11.184C10.64 11.0986 11.0667 11.0133 11.408 10.928L14.48 10.544L16.144 10.416L19.216 10.032C20.0694 9.86131 20.752 9.77598 21.264 9.77598C24.9334 9.26398 26.9387 9.00797 27.28 9.00797C27.7067 9.00797 28.3467 8.92264 29.2 8.75198L33.168 8.36797C33.5947 8.36797 33.936 8.32531 34.192 8.23997C34.5334 8.15464 34.8747 8.11198 35.216 8.11198L38.032 7.85598C39.2267 7.68531 40.08 7.59998 40.592 7.59998L42.64 7.34397L46.352 6.95998L47.504 6.83198C48.1867 6.83198 49.2107 6.74664 50.576 6.57597C51.0027 6.49064 51.6 6.40531 52.368 6.31998C53.2214 6.23464 53.9467 6.19198 54.544 6.19198L56.08 6.06397L60.688 5.55198C63.0774 5.38131 64.784 5.21064 65.808 5.03997L70.288 4.65598C72.848 4.48531 74.6827 4.31464 75.792 4.14397L79.888 3.75997C80.656 3.75997 81.6374 3.67464 82.832 3.50397C83.5147 3.50397 84.1974 3.46131 84.88 3.37598C85.5627 3.29064 86.2027 3.24798 86.8 3.24798L88.72 2.99197C89.0614 2.90664 89.616 2.86398 90.384 2.86398C92.0907 2.69331 93.3707 2.60798 94.224 2.60798C94.736 2.52265 95.376 2.43731 96.144 2.35197C96.912 2.26664 97.7654 2.22398 98.704 2.22398L100.112 2.09597C100.624 2.01064 101.435 1.96798 102.544 1.96798L104.08 1.71198C105.36 1.71198 106.341 1.66931 107.024 1.58398L111.12 1.32798C112.229 1.15731 113.168 1.07198 113.936 1.07198C114.789 0.986641 115.472 0.943977 115.984 0.943977C116.923 0.943977 117.648 0.901304 118.16 0.815971C118.501 0.730639 119.013 0.687981 119.696 0.687981L122.128 0.559975L125.968 0.431976L128.144 0.303978L135.44 0.0479736H140.176L145.424 0.175972C147.643 0.346639 149.392 0.559972 150.672 0.815971C151.099 0.986638 151.909 1.15731 153.104 1.32798C154.128 1.58398 154.896 2.13864 155.408 2.99197ZM118.672 11.312C119.269 11.4826 119.781 11.824 120.208 12.336C120.72 12.848 120.976 13.4026 120.976 14C120.976 15.1093 120.421 15.9626 119.312 16.56C118.971 16.816 118.544 16.944 118.032 16.944L115.728 17.2C114.107 17.2 112.912 17.2426 112.144 17.328L107.024 17.584L102.288 17.968C101.435 17.968 100.155 18.0533 98.448 18.224C97.5947 18.224 96.4854 18.3093 95.12 18.48H93.072C92.4747 18.5653 91.7067 18.6506 90.768 18.736C89.8294 18.8213 89.104 18.864 88.592 18.864C88.336 18.9493 88.0374 18.992 87.696 18.992C87.44 18.9066 87.1414 18.9066 86.8 18.992C85.6054 19.1626 84.624 19.248 83.856 19.248L81.936 19.376L78.224 19.632L76.048 19.888L71.184 20.272C69.648 20.4426 68.496 20.528 67.728 20.528C67.0454 20.528 66.0214 20.6133 64.656 20.784L62.224 21.04L57.616 21.424C57.2747 21.5093 56.8054 21.552 56.208 21.552L51.856 21.936C51.5147 22.0213 51.0027 22.064 50.32 22.064L47.76 22.448L45.328 22.576L42.896 22.832C42.2134 23.0026 41.6587 23.088 41.232 23.088C40.5494 23.088 39.5254 23.1733 38.16 23.344C37.2214 23.344 36.4107 23.3866 35.728 23.472C35.1307 23.5573 34.576 23.6426 34.064 23.728C33.7227 23.728 33.1254 23.8133 32.272 23.984C31.5894 23.984 30.6507 24.0693 29.456 24.24L25.744 24.624L24.208 24.88C22.928 24.88 21.9894 24.4533 21.392 23.6C20.9654 23.0026 20.752 22.448 20.752 21.936C20.752 21.424 20.9654 20.8693 21.392 20.272C21.904 19.6746 22.6294 19.2906 23.568 19.12C24.9334 18.9493 25.9147 18.864 26.512 18.864L30.352 18.48C30.6934 18.3946 31.248 18.352 32.016 18.352L34.704 17.968C35.6427 17.968 36.4534 17.9253 37.136 17.84C37.904 17.7546 38.544 17.6693 39.056 17.584L41.744 17.2L44.048 17.072C45.2427 16.9013 46.1387 16.816 46.736 16.816L49.04 16.56C49.4667 16.56 50.0214 16.5173 50.704 16.432C51.472 16.3466 52.112 16.2613 52.624 16.176C53.648 16.176 54.416 16.1333 54.928 16.048C55.952 15.8773 56.848 15.792 57.616 15.792C58.384 15.7066 59.024 15.664 59.536 15.664L61.712 15.408C62.224 15.408 63.1627 15.3226 64.528 15.152C65.2107 15.152 66.2347 15.0666 67.6 14.896C68.9654 14.7253 69.9894 14.64 70.672 14.64C71.2694 14.5546 71.952 14.4693 72.72 14.384C73.488 14.2986 74.384 14.256 75.408 14.256C76.0054 14.256 76.9014 14.1706 78.096 14C79.12 14 80.016 13.9573 80.784 13.872C81.552 13.7866 82.192 13.7013 82.704 13.616L86.928 13.36L92.56 12.976L96.912 12.592C98.0214 12.592 99.6 12.5066 101.648 12.336L106.64 12.08L112.144 11.696L115.856 11.568C116.112 11.568 116.496 11.4826 117.008 11.312H118.672Z" fill="#D7D7D7"/>
</svg>
