<svg width="407" height="198" viewBox="0 0 407 198" fill="none" xmlns="http://www.w3.org/2000/svg">
<g clip-path="url(#clip0_8_18642)">
<path d="M136.896 124.092C137.152 125.756 136.768 127.292 135.744 128.7C134.848 129.98 133.568 130.812 131.904 131.196C130.24 131.452 128.704 131.068 127.296 130.044C126.016 129.02 125.248 127.676 124.992 126.012C123.968 120.764 121.088 115.836 116.352 111.228C111.872 107.004 107.072 103.868 101.952 101.82C102.464 102.844 103.04 103.932 103.68 105.084C113.664 123.388 114.752 140.348 106.944 155.964C102.848 164.156 96.832 170.684 88.896 175.548C80.96 180.54 72.384 183.1 63.168 183.228C56.512 183.356 49.92 182.012 43.392 179.196C36.992 176.38 31.616 172.348 27.264 167.1C18.304 156.604 15.488 143.74 18.816 128.508C20.992 119.036 25.088 110.844 31.104 103.932C37.12 96.892 44.544 91.58 53.376 87.996C61.696 84.668 70.656 83.132 80.256 83.388C78.976 78.268 78.144 73.276 77.76 68.412C76.736 68.156 75.648 67.9 74.496 67.644C63.744 65.084 53.056 60.924 42.432 55.164C40.512 54.012 39.296 52.412 38.784 50.364C38.272 48.188 38.528 46.14 39.552 44.22C40.704 42.3 42.368 41.084 44.544 40.572C46.72 40.06 48.704 40.38 50.496 41.532C60.608 48.188 69.696 52.732 77.76 55.164H77.952C78.72 49.916 80.128 45.116 82.176 40.764C85.248 34.108 89.536 28.988 95.04 25.404C100.544 21.692 106.304 19.964 112.32 20.22C118.336 20.348 123.904 22.268 129.024 25.98C134.912 30.332 137.152 36.22 135.744 43.644C134.848 48.764 132.16 53.628 127.68 58.236C123.2 62.716 117.312 66.044 110.016 68.22C104.384 69.756 98.112 70.396 91.2 70.14C91.84 74.876 92.992 79.868 94.656 85.116C98.368 85.884 102.016 86.908 105.6 88.188C108.032 89.084 111.168 90.748 115.008 93.18C118.848 95.612 122.432 98.556 125.76 102.012C132.16 108.796 135.872 116.156 136.896 124.092ZM91.2 55.548C87.36 56.06 84.096 56.316 81.408 56.316C83.072 56.7 85.824 57.084 89.664 57.468C93.632 57.724 96.192 57.788 97.344 57.66C103.872 57.404 109.376 55.932 113.856 53.244C118.464 50.428 121.472 47.164 122.88 43.452C124.16 40.124 123.712 37.692 121.536 36.156C118.72 34.108 115.648 33.084 112.32 33.084C109.12 32.956 106.112 33.724 103.296 35.388C100.48 37.052 97.92 39.676 95.616 43.26C93.44 46.716 91.968 50.748 91.2 55.356C91.2 55.484 91.2 55.548 91.2 55.548ZM94.464 149.82C100.096 138.428 99.136 125.692 91.584 111.612C89.664 107.9 87.936 104.252 86.4 100.668C90.24 100.412 93.504 100.348 96.192 100.476C91.968 99.196 87.744 98.428 83.52 98.172C74.816 97.66 66.688 98.94 59.136 102.012C52.608 104.7 47.04 108.604 42.432 113.724C37.952 118.844 34.944 124.924 33.408 131.964C30.976 142.204 32.64 150.78 38.4 157.692C41.344 161.276 44.992 164.028 49.344 165.948C53.824 167.868 58.368 168.828 62.976 168.828C69.504 168.828 75.648 167.1 81.408 163.644C87.168 160.188 91.52 155.58 94.464 149.82ZM191.937 113.34C193.601 112.828 195.137 112.956 196.545 113.724C198.081 114.492 199.041 115.708 199.425 117.372C199.937 118.908 199.809 120.38 199.041 121.788C192.641 134.076 186.369 143.164 180.225 149.052C176.897 152.124 173.825 154.044 171.009 154.812C167.809 155.708 164.929 155.26 162.369 153.468C159.937 151.548 158.529 148.54 158.145 144.444C157.633 139.708 158.785 132.924 161.601 124.092C163.009 119.612 163.905 116.22 164.289 113.916C164.929 110.332 165.121 107.452 164.865 105.276L164.673 105.468C153.665 116.476 142.529 130.748 131.265 148.284C129.217 151.356 126.401 152.508 122.817 151.74C121.665 151.868 120.577 151.74 119.553 151.356C118.017 150.716 116.929 149.628 116.289 148.092C115.649 146.556 115.649 145.02 116.289 143.484C116.929 141.436 117.441 140.22 117.825 139.836C120.513 132.796 124.609 123.26 130.113 111.228C133.825 102.78 139.649 89.916 147.585 72.636C155.649 55.356 161.089 43.58 163.905 37.308C164.801 35.26 166.273 33.852 168.321 33.084C170.369 32.316 172.417 32.444 174.465 33.468C176.513 34.364 177.857 35.836 178.497 37.884C179.265 39.932 179.201 41.98 178.305 44.028C177.153 46.332 175.169 50.556 172.353 56.7C169.537 62.716 166.721 68.668 163.905 74.556C161.089 80.444 158.465 85.756 156.033 90.492C154.753 91.772 153.281 93.692 151.617 96.252C149.953 98.812 148.993 100.796 148.737 102.204C150.273 99.9 152.129 97.596 154.305 95.292C156.609 92.988 158.529 91.452 160.065 90.684C161.985 89.66 163.777 89.212 165.441 89.34C173.121 90.108 177.537 94.652 178.689 102.972C179.585 109.244 178.177 117.692 174.465 128.316C173.313 131.644 172.417 135.42 171.777 139.644C177.025 134.78 182.593 126.972 188.481 116.22C189.249 114.812 190.401 113.852 191.937 113.34ZM244.23 117.18C245.766 116.412 247.302 116.284 248.838 116.796C250.374 117.308 251.462 118.332 252.102 119.868C252.87 121.276 252.934 122.748 252.294 124.284C249.99 131.964 246.534 138.748 241.926 144.636C237.446 150.396 232.838 154.62 228.102 157.308C222.342 160.636 217.158 161.148 212.55 158.844C208.07 156.668 205.83 152.764 205.83 147.132C205.702 140.604 208.966 131.708 215.622 120.444C216.902 118.396 217.67 116.668 217.926 115.26C218.31 113.98 218.31 113.148 217.926 112.764C217.542 111.868 216.518 111.036 214.854 110.268C214.086 109.756 213.318 109.372 212.55 109.116C211.27 110.012 210.118 110.844 209.094 111.612C207.686 112.508 206.15 112.828 204.486 112.572C202.95 112.316 201.67 111.484 200.646 110.076C199.366 108.156 199.238 106.172 200.262 104.124C199.366 103.74 198.598 103.356 197.958 102.972C195.142 101.052 193.35 98.812 192.582 96.252C191.43 92.796 191.942 89.276 194.118 85.692C197.702 79.548 202.374 74.364 208.134 70.14C213.51 66.3 218.246 64.124 222.342 63.612C227.206 63.1 230.918 64.252 233.478 67.068C237.062 70.78 237.574 75.964 235.014 82.62C232.966 87.612 229.254 92.988 223.878 98.748C227.206 100.924 229.638 103.548 231.174 106.62C234.118 112.508 233.158 119.612 228.294 127.932C224.838 133.948 222.534 138.94 221.382 142.908C221.382 143.292 221.254 143.868 220.998 144.636C221.382 144.38 221.958 143.996 222.726 143.484C223.622 142.844 224.07 142.46 224.07 142.332C231.75 137.084 237.51 129.788 241.35 120.444C241.862 118.908 242.822 117.82 244.23 117.18ZM211.59 93.564C212.358 93.82 213.638 94.396 215.43 95.292C217.35 96.188 218.758 96.764 219.654 97.02C218.886 96.252 216.646 94.716 212.934 92.412C214.086 91.26 215.11 90.108 216.006 88.956C218.694 85.884 220.742 82.94 222.15 80.124C222.534 79.356 222.918 78.268 223.302 76.86C220.998 77.372 217.99 79.292 214.278 82.62C210.95 85.436 208.262 88.636 206.214 92.22C206.726 92.348 207.622 92.604 208.902 92.988C210.182 93.244 211.078 93.436 211.59 93.564ZM307.661 111.804C309.197 111.036 310.733 110.972 312.269 111.612C313.933 112.124 315.085 113.148 315.725 114.684C316.365 116.22 316.429 117.756 315.917 119.292C310.797 133.884 303.693 143.548 294.605 148.284C290.509 150.332 286.477 151.036 282.509 150.396C278.925 149.756 275.917 147.9 273.485 144.828C273.229 144.444 272.909 143.932 272.525 143.292C272.141 142.652 271.821 142.204 271.565 141.948C271.437 141.692 271.245 141.308 270.989 140.796C270.733 140.156 270.541 139.644 270.413 139.26C270.413 138.876 270.349 138.364 270.221 137.724C270.221 137.084 270.221 136.444 270.221 135.804C269.325 136.956 268.941 138.428 269.069 140.22C269.197 141.884 269.645 143.548 270.413 145.212C266.061 150.204 261.645 153.148 257.165 154.044C251.149 155.324 246.285 153.084 242.573 147.324C240.909 144.38 239.757 140.732 239.117 136.38C238.605 131.9 238.861 127.164 239.885 122.172C240.781 118.076 242.317 113.212 244.493 107.58C247.181 100.284 250.253 93.436 253.709 87.036C254.733 85.116 256.269 83.9 258.317 83.388C260.493 82.748 262.541 82.94 264.461 83.964C266.381 84.988 267.661 86.588 268.301 88.764C268.941 90.812 268.685 92.796 267.533 94.716C264.973 99.196 262.477 104.316 260.045 110.076C257.357 116.22 255.501 121.34 254.477 125.436C253.453 129.66 253.261 133.436 253.901 136.764C254.029 137.916 254.285 138.748 254.669 139.26C254.669 139.516 254.797 139.836 255.053 140.22C257.613 138.556 259.661 136.828 261.197 135.036C264.525 131.196 267.917 125.948 271.373 119.292C271.501 118.78 271.629 118.46 271.757 118.332C273.165 114.108 274.829 109.756 276.749 105.276C278.797 100.924 281.869 94.844 285.965 87.036C286.989 85.116 288.524 83.9 290.573 83.388C292.749 82.748 294.797 82.94 296.717 83.964C298.637 84.988 299.917 86.588 300.557 88.764C301.197 90.812 300.941 92.796 299.789 94.716C295.565 102.14 292.493 107.836 290.573 111.804C288.524 115.772 286.861 119.612 285.581 123.324C283.661 128.188 283.021 132.028 283.661 134.844C284.045 136.252 284.493 137.02 285.005 137.148C286.669 137.404 288.653 136.7 290.957 135.036C296.333 131.196 300.877 124.54 304.589 115.068C305.229 113.532 306.253 112.444 307.661 111.804ZM356.886 67.644C358.166 68.796 358.806 70.204 358.806 71.868C358.806 73.532 358.166 74.94 356.886 76.092C355.734 77.244 354.326 77.82 352.662 77.82L329.814 78.396L337.686 80.316C336.534 83.132 333.206 90.812 327.702 103.356C322.198 115.772 318.166 124.796 315.606 130.428C312.534 137.084 310.614 142.204 309.846 145.788V145.98C310.23 145.852 310.614 145.66 310.998 145.404C316.118 142.972 322.454 138.364 330.006 131.58C335.766 126.332 341.206 120.764 346.326 114.876C347.478 113.724 348.886 113.084 350.55 112.956C352.214 112.828 353.622 113.34 354.774 114.492C356.054 115.516 356.758 116.86 356.886 118.524C357.014 120.06 356.566 121.468 355.542 122.748C348.758 130.812 341.526 138.236 333.846 145.02C326.166 151.676 319.766 156.092 314.646 158.268C310.038 160.188 306.07 160.508 302.742 159.228C298.646 157.692 296.47 154.236 296.214 148.86C295.958 143.484 298.134 135.42 302.742 124.668C303.51 123.004 309.91 107.708 321.942 78.78H316.95C314.774 78.78 312.918 78.012 311.382 76.476C309.974 74.812 309.27 72.892 309.27 70.716C309.398 68.412 310.23 66.556 311.766 65.148C313.43 63.612 315.35 62.844 317.526 62.844L328.278 63.804C328.662 62.908 329.046 62.012 329.43 61.116C332.502 54.076 334.998 48.7 336.918 44.988C337.942 43.068 339.478 41.788 341.526 41.148C343.702 40.508 345.75 40.764 347.67 41.916C349.59 42.94 350.87 44.54 351.51 46.716C352.15 48.764 351.958 50.748 350.934 52.668C349.398 55.356 347.286 59.516 344.598 65.148L352.662 65.916C354.326 65.916 355.734 66.492 356.886 67.644ZM380.61 78.204C378.946 79.996 376.834 80.892 374.274 80.892C371.842 80.892 369.73 79.996 367.938 78.204C366.274 76.412 365.442 74.3 365.442 71.868C365.442 69.436 366.274 67.388 367.938 65.724C369.73 63.932 371.842 63.036 374.274 63.036C376.834 63.036 378.946 63.932 380.61 65.724C382.402 67.388 383.298 69.436 383.298 71.868C383.298 74.3 382.402 76.412 380.61 78.204ZM381.57 112.956C383.234 112.444 384.77 112.572 386.178 113.34C387.714 114.108 388.674 115.324 389.058 116.988C389.57 118.524 389.442 120.06 388.674 121.596C384.194 130.044 379.266 137.084 373.89 142.716C368.514 148.22 363.586 151.868 359.106 153.66C353.346 155.964 348.546 155.516 344.706 152.316C342.018 150.14 340.482 146.876 340.098 142.524C339.586 138.428 340.418 133.244 342.594 126.972C344.386 121.98 346.946 115.516 350.274 107.58C353.09 101.18 355.97 94.972 358.914 88.956C359.938 86.908 361.474 85.564 363.522 84.924C365.57 84.284 367.554 84.476 369.474 85.5C371.522 86.524 372.866 88.06 373.506 90.108C374.146 92.156 373.954 94.204 372.93 96.252C369.986 101.628 367.042 107.516 364.098 113.916C360.642 121.34 358.018 127.292 356.226 131.772C354.946 135.1 354.242 137.724 354.114 139.644C353.986 140.284 353.922 140.796 353.922 141.18C354.178 141.18 354.37 141.116 354.498 140.988C355.906 140.476 357.442 139.644 359.106 138.492C365.89 133.628 372.226 126.076 378.114 115.836C378.882 114.3 380.034 113.34 381.57 112.956Z" fill="#FFB0B0"/>
</g>
<defs>
<clipPath id="clip0_8_18642">
<rect width="406.5" height="198" fill="white"/>
</clipPath>
</defs>
</svg>
