<svg width="136" height="66" viewBox="0 0 136 66" fill="none" xmlns="http://www.w3.org/2000/svg">
<g clip-path="url(#clip0_8_20)">
<path d="M45.632 41.364C45.7173 41.9187 45.5893 42.4307 45.248 42.9C44.9493 43.3267 44.5227 43.604 43.968 43.732C43.4133 43.8173 42.9013 43.6893 42.432 43.348C42.0053 43.0067 41.7493 42.5587 41.664 42.004C41.3227 40.2547 40.3627 38.612 38.784 37.076C37.2907 35.668 35.6907 34.6227 33.984 33.94C34.1547 34.2813 34.3467 34.644 34.56 35.028C37.888 41.1293 38.2507 46.7827 35.648 51.988C34.2827 54.7187 32.2773 56.8947 29.632 58.516C26.9867 60.18 24.128 61.0333 21.056 61.076C18.8373 61.1187 16.64 60.6707 14.464 59.732C12.3307 58.7933 10.5387 57.4493 9.088 55.7C6.10133 52.2013 5.16267 47.9133 6.272 42.836C6.99733 39.6787 8.36267 36.948 10.368 34.644C12.3733 32.2973 14.848 30.5267 17.792 29.332C20.5653 28.2227 23.552 27.7107 26.752 27.796C26.3253 26.0893 26.048 24.4253 25.92 22.804C25.5787 22.7187 25.216 22.6333 24.832 22.548C21.248 21.6947 17.6853 20.308 14.144 18.388C13.504 18.004 13.0987 17.4707 12.928 16.788C12.7573 16.0627 12.8427 15.38 13.184 14.74C13.568 14.1 14.1227 13.6947 14.848 13.524C15.5733 13.3533 16.2347 13.46 16.832 13.844C20.2027 16.0627 23.232 17.5773 25.92 18.388H25.984C26.24 16.6387 26.7093 15.0387 27.392 13.588C28.416 11.3693 29.8453 9.66267 31.68 8.468C33.5147 7.23067 35.4347 6.65467 37.44 6.74C39.4453 6.78266 41.3013 7.42266 43.008 8.66C44.9707 10.1107 45.7173 12.0733 45.248 14.548C44.9493 16.2547 44.0533 17.876 42.56 19.412C41.0667 20.9053 39.104 22.0147 36.672 22.74C34.7947 23.252 32.704 23.4653 30.4 23.38C30.6133 24.9587 30.9973 26.6227 31.552 28.372C32.7893 28.628 34.0053 28.9693 35.2 29.396C36.0107 29.6947 37.056 30.2493 38.336 31.06C39.616 31.8707 40.8107 32.852 41.92 34.004C44.0533 36.2653 45.2907 38.7187 45.632 41.364ZM30.4 18.516C29.12 18.6867 28.032 18.772 27.136 18.772C27.6907 18.9 28.608 19.028 29.888 19.156C31.2107 19.2413 32.064 19.2627 32.448 19.22C34.624 19.1347 36.4587 18.644 37.952 17.748C39.488 16.8093 40.4907 15.7213 40.96 14.484C41.3867 13.3747 41.2373 12.564 40.512 12.052C39.5733 11.3693 38.5493 11.028 37.44 11.028C36.3733 10.9853 35.3707 11.2413 34.432 11.796C33.4933 12.3507 32.64 13.2253 31.872 14.42C31.1467 15.572 30.656 16.916 30.4 18.452C30.4 18.4947 30.4 18.516 30.4 18.516ZM31.488 49.94C33.3653 46.1427 33.0453 41.8973 30.528 37.204C29.888 35.9667 29.312 34.7507 28.8 33.556C30.08 33.4707 31.168 33.4493 32.064 33.492C30.656 33.0653 29.248 32.8093 27.84 32.724C24.9387 32.5533 22.2293 32.98 19.712 34.004C17.536 34.9 15.68 36.2013 14.144 37.908C12.6507 39.6147 11.648 41.6413 11.136 43.988C10.3253 47.4013 10.88 50.26 12.8 52.564C13.7813 53.7587 14.9973 54.676 16.448 55.316C17.9413 55.956 19.456 56.276 20.992 56.276C23.168 56.276 25.216 55.7 27.136 54.548C29.056 53.396 30.5067 51.86 31.488 49.94ZM63.979 37.78C64.5337 37.6093 65.0457 37.652 65.515 37.908C66.027 38.164 66.347 38.5693 66.475 39.124C66.6457 39.636 66.603 40.1267 66.347 40.596C64.2137 44.692 62.123 47.7213 60.075 49.684C58.9657 50.708 57.9417 51.348 57.003 51.604C55.9363 51.9027 54.9763 51.7533 54.123 51.156C53.3123 50.516 52.843 49.5133 52.715 48.148C52.5443 46.5693 52.9283 44.308 53.867 41.364C54.3363 39.8707 54.635 38.74 54.763 37.972C54.9763 36.7773 55.0403 35.8173 54.955 35.092L54.891 35.156C51.2217 38.8253 47.5097 43.5827 43.755 49.428C43.0723 50.452 42.1337 50.836 40.939 50.58C40.555 50.6227 40.1923 50.58 39.851 50.452C39.339 50.2387 38.9763 49.876 38.763 49.364C38.5497 48.852 38.5497 48.34 38.763 47.828C38.9763 47.1453 39.147 46.74 39.275 46.612C40.171 44.2653 41.5363 41.0867 43.371 37.076C44.6083 34.26 46.5497 29.972 49.195 24.212C51.883 18.452 53.6963 14.5267 54.635 12.436C54.9337 11.7533 55.4243 11.284 56.107 11.028C56.7897 10.772 57.4723 10.8147 58.155 11.156C58.8377 11.4547 59.2857 11.9453 59.499 12.628C59.755 13.3107 59.7337 13.9933 59.435 14.676C59.051 15.444 58.3897 16.852 57.451 18.9C56.5123 20.9053 55.5737 22.8893 54.635 24.852C53.6963 26.8147 52.8217 28.5853 52.011 30.164C51.5843 30.5907 51.0937 31.2307 50.539 32.084C49.9843 32.9373 49.6643 33.5987 49.579 34.068C50.091 33.3 50.7097 32.532 51.435 31.764C52.203 30.996 52.843 30.484 53.355 30.228C53.995 29.8867 54.5923 29.7373 55.147 29.78C57.707 30.036 59.179 31.5507 59.563 34.324C59.8617 36.4147 59.3923 39.2307 58.155 42.772C57.771 43.8813 57.4723 45.14 57.259 46.548C59.0083 44.9267 60.8643 42.324 62.827 38.74C63.083 38.2707 63.467 37.9507 63.979 37.78ZM81.41 39.06C81.922 38.804 82.434 38.7613 82.946 38.932C83.458 39.1027 83.8207 39.444 84.034 39.956C84.29 40.4253 84.3113 40.916 84.098 41.428C83.33 43.988 82.178 46.2493 80.642 48.212C79.1487 50.132 77.6127 51.54 76.034 52.436C74.114 53.5453 72.386 53.716 70.85 52.948C69.3567 52.2227 68.61 50.9213 68.61 49.044C68.5673 46.868 69.6553 43.9027 71.874 40.148C72.3007 39.4653 72.5567 38.8893 72.642 38.42C72.77 37.9933 72.77 37.716 72.642 37.588C72.514 37.2893 72.1727 37.012 71.618 36.756C71.362 36.5853 71.106 36.4573 70.85 36.372C70.4233 36.6707 70.0393 36.948 69.698 37.204C69.2287 37.5027 68.7167 37.6093 68.162 37.524C67.65 37.4387 67.2233 37.1613 66.882 36.692C66.4553 36.052 66.4127 35.3907 66.754 34.708C66.4553 34.58 66.1993 34.452 65.986 34.324C65.0473 33.684 64.45 32.9373 64.194 32.084C63.81 30.932 63.9807 29.7587 64.706 28.564C65.9007 26.516 67.458 24.788 69.378 23.38C71.17 22.1 72.7487 21.3747 74.114 21.204C75.7353 21.0333 76.9727 21.4173 77.826 22.356C79.0207 23.5933 79.1913 25.3213 78.338 27.54C77.6553 29.204 76.418 30.996 74.626 32.916C75.7353 33.6413 76.546 34.516 77.058 35.54C78.0393 37.5027 77.7193 39.8707 76.098 42.644C74.946 44.6493 74.178 46.3133 73.794 47.636C73.794 47.764 73.7513 47.956 73.666 48.212C73.794 48.1267 73.986 47.9987 74.242 47.828C74.5407 47.6147 74.69 47.4867 74.69 47.444C77.25 45.6947 79.17 43.2627 80.45 40.148C80.6207 39.636 80.9407 39.2733 81.41 39.06ZM70.53 31.188C70.786 31.2733 71.2127 31.4653 71.81 31.764C72.45 32.0627 72.9193 32.2547 73.218 32.34C72.962 32.084 72.2153 31.572 70.978 30.804C71.362 30.42 71.7033 30.036 72.002 29.652C72.898 28.628 73.5807 27.6467 74.05 26.708C74.178 26.452 74.306 26.0893 74.434 25.62C73.666 25.7907 72.6633 26.4307 71.426 27.54C70.3167 28.4787 69.4207 29.5453 68.738 30.74C68.9087 30.7827 69.2073 30.868 69.634 30.996C70.0607 31.0813 70.3593 31.1453 70.53 31.188ZM102.554 37.268C103.066 37.012 103.578 36.9907 104.09 37.204C104.644 37.3747 105.028 37.716 105.242 38.228C105.455 38.74 105.476 39.252 105.306 39.764C103.599 44.628 101.231 47.8493 98.2015 49.428C96.8362 50.1107 95.4922 50.3453 94.1695 50.132C92.9748 49.9187 91.9722 49.3 91.1615 48.276C91.0762 48.148 90.9695 47.9773 90.8415 47.764C90.7135 47.5507 90.6068 47.4013 90.5215 47.316C90.4788 47.2307 90.4148 47.1027 90.3295 46.932C90.2442 46.7187 90.1802 46.548 90.1375 46.42C90.1375 46.292 90.1162 46.1213 90.0735 45.908C90.0735 45.6947 90.0735 45.4813 90.0735 45.268C89.7748 45.652 89.6468 46.1427 89.6895 46.74C89.7322 47.2947 89.8815 47.8493 90.1375 48.404C88.6868 50.068 87.2148 51.0493 85.7215 51.348C83.7162 51.7747 82.0948 51.028 80.8575 49.108C80.3028 48.1267 79.9188 46.9107 79.7055 45.46C79.5348 43.9667 79.6202 42.388 79.9615 40.724C80.2602 39.3587 80.7722 37.7373 81.4975 35.86C82.3935 33.428 83.4175 31.1453 84.5695 29.012C84.9108 28.372 85.4228 27.9667 86.1055 27.796C86.8308 27.5827 87.5135 27.6467 88.1535 27.988C88.7935 28.3293 89.2202 28.8627 89.4335 29.588C89.6468 30.2707 89.5615 30.932 89.1775 31.572C88.3242 33.0653 87.4922 34.772 86.6815 36.692C85.7855 38.74 85.1668 40.4467 84.8255 41.812C84.4842 43.22 84.4202 44.4787 84.6335 45.588C84.6762 45.972 84.7615 46.2493 84.8895 46.42C84.8895 46.5053 84.9322 46.612 85.0175 46.74C85.8708 46.1853 86.5535 45.6093 87.0655 45.012C88.1748 43.732 89.3055 41.9827 90.4575 39.764C90.5002 39.5933 90.5428 39.4867 90.5855 39.444C91.0548 38.036 91.6095 36.5853 92.2495 35.092C92.9322 33.6413 93.9562 31.6147 95.3215 29.012C95.6628 28.372 96.1748 27.9667 96.8575 27.796C97.5828 27.5827 98.2655 27.6467 98.9055 27.988C99.5455 28.3293 99.9722 28.8627 100.186 29.588C100.399 30.2707 100.314 30.932 99.9295 31.572C98.5215 34.0467 97.4975 35.9453 96.8575 37.268C96.1748 38.5907 95.6202 39.8707 95.1935 41.108C94.5535 42.7293 94.3402 44.0093 94.5535 44.948C94.6815 45.4173 94.8308 45.6733 95.0015 45.716C95.5562 45.8013 96.2175 45.5667 96.9855 45.012C98.7775 43.732 100.292 41.5133 101.53 38.356C101.743 37.844 102.084 37.4813 102.554 37.268ZM118.962 22.548C119.389 22.932 119.602 23.4013 119.602 23.956C119.602 24.5107 119.389 24.98 118.962 25.364C118.578 25.748 118.109 25.94 117.554 25.94L109.938 26.132L112.562 26.772C112.178 27.7107 111.069 30.2707 109.234 34.452C107.399 38.5907 106.055 41.5987 105.202 43.476C104.178 45.6947 103.538 47.4013 103.282 48.596V48.66C103.41 48.6173 103.538 48.5533 103.666 48.468C105.373 47.6573 107.485 46.1213 110.002 43.86C111.922 42.1107 113.735 40.2547 115.442 38.292C115.826 37.908 116.295 37.6947 116.85 37.652C117.405 37.6093 117.874 37.78 118.258 38.164C118.685 38.5053 118.919 38.9533 118.962 39.508C119.005 40.02 118.855 40.4893 118.514 40.916C116.253 43.604 113.842 46.0787 111.282 48.34C108.722 50.5587 106.589 52.0307 104.882 52.756C103.346 53.396 102.023 53.5027 100.914 53.076C99.5487 52.564 98.8233 51.412 98.738 49.62C98.6527 47.828 99.378 45.14 100.914 41.556C101.17 41.0013 103.303 35.9027 107.314 26.26H105.65C104.925 26.26 104.306 26.004 103.794 25.492C103.325 24.9373 103.09 24.2973 103.09 23.572C103.133 22.804 103.41 22.1853 103.922 21.716C104.477 21.204 105.117 20.948 105.842 20.948L109.426 21.268C109.554 20.9693 109.682 20.6707 109.81 20.372C110.834 18.0253 111.666 16.2333 112.306 14.996C112.647 14.356 113.159 13.9293 113.842 13.716C114.567 13.5027 115.25 13.588 115.89 13.972C116.53 14.3133 116.957 14.8467 117.17 15.572C117.383 16.2547 117.319 16.916 116.978 17.556C116.466 18.452 115.762 19.8387 114.866 21.716L117.554 21.972C118.109 21.972 118.578 22.164 118.962 22.548ZM126.87 26.068C126.315 26.6653 125.611 26.964 124.758 26.964C123.947 26.964 123.243 26.6653 122.646 26.068C122.091 25.4707 121.814 24.7667 121.814 23.956C121.814 23.1453 122.091 22.4627 122.646 21.908C123.243 21.3107 123.947 21.012 124.758 21.012C125.611 21.012 126.315 21.3107 126.87 21.908C127.467 22.4627 127.766 23.1453 127.766 23.956C127.766 24.7667 127.467 25.4707 126.87 26.068ZM127.19 37.652C127.745 37.4813 128.257 37.524 128.726 37.78C129.238 38.036 129.558 38.4413 129.686 38.996C129.857 39.508 129.814 40.02 129.558 40.532C128.065 43.348 126.422 45.6947 124.63 47.572C122.838 49.4067 121.195 50.6227 119.702 51.22C117.782 51.988 116.182 51.8387 114.902 50.772C114.006 50.0467 113.494 48.9587 113.366 47.508C113.195 46.1427 113.473 44.4147 114.198 42.324C114.795 40.66 115.649 38.5053 116.758 35.86C117.697 33.7267 118.657 31.6573 119.638 29.652C119.979 28.9693 120.491 28.5213 121.174 28.308C121.857 28.0947 122.518 28.1587 123.158 28.5C123.841 28.8413 124.289 29.3533 124.502 30.036C124.715 30.7187 124.651 31.4013 124.31 32.084C123.329 33.876 122.347 35.8387 121.366 37.972C120.214 40.4467 119.339 42.4307 118.742 43.924C118.315 45.0333 118.081 45.908 118.038 46.548C117.995 46.7613 117.974 46.932 117.974 47.06C118.059 47.06 118.123 47.0387 118.166 46.996C118.635 46.8253 119.147 46.548 119.702 46.164C121.963 44.5427 124.075 42.0253 126.038 38.612C126.294 38.1 126.678 37.78 127.19 37.652Z" fill="#424242"/>
</g>
<defs>
<clipPath id="clip0_8_20">
<rect width="135.5" height="66" fill="white"/>
</clipPath>
</defs>
</svg>
